<svg xmlns="http://www.w3.org/2000/svg" width="1400" height="850" viewBox="0 0 1400 850">
  <defs>
    <linearGradient id="g" x1="0" x2="1" y1="0" y2="1">
      <stop offset="0" stop-color="#061b31"/>
      <stop offset="1" stop-color="#123b66"/>
    </linearGradient>
    <filter id="shadow" x="-30%" y="-30%" width="160%" height="160%">
      <feDropShadow dx="0" dy="24" stdDeviation="25" flood-color="#000" flood-opacity=".25"/>
    </filter>
  </defs>
  <rect width="1400" height="850" fill="url(#g)"/>
  <circle cx="1120" cy="120" r="210" fill="#ff6b00" opacity=".18"/>
  <circle cx="1180" cy="710" r="280" fill="#ff6b00" opacity=".14"/>
  <path d="M0 720 C250 610, 480 850, 760 710 S1150 540, 1400 660 L1400 850 L0 850 Z" fill="#ff6b00" opacity=".2"/>
  <g filter="url(#shadow)" transform="translate(780 205)">
    <rect x="0" y="0" width="430" height="300" rx="34" fill="#fff"/>
    <rect x="42" y="52" width="130" height="68" rx="30" fill="none" stroke="#071f36" stroke-width="18"/>
    <rect x="250" y="52" width="130" height="68" rx="30" fill="none" stroke="#071f36" stroke-width="18"/>
    <path d="M172 86 C205 68, 226 68, 250 86" fill="none" stroke="#071f36" stroke-width="15" stroke-linecap="round"/>
    <path d="M85 160 H344" stroke="#ff6b00" stroke-width="18" stroke-linecap="round"/>
    <path d="M70 218 H360" stroke="#e5e7eb" stroke-width="18" stroke-linecap="round"/>
  </g>
  <text x="95" y="260" font-family="Arial, sans-serif" font-size="82" font-weight="900" fill="#ffffff">Office Visit</text>
  <text x="100" y="345" font-family="Arial, sans-serif" font-size="34" font-weight="600" fill="#ffffff" opacity=".92">Call LensRider to your workplace</text>
  <text x="100" y="500" font-family="Arial, sans-serif" font-size="130">🏢</text>
  <rect x="100" y="600" width="350" height="78" rx="24" fill="#ff6b00"/>
  <text x="150" y="650" font-family="Arial, sans-serif" font-size="30" font-weight="800" fill="#fff">Book on WhatsApp</text>
</svg>